<svg viewBox="0 0 32 32" fill="none" xmlns="http://www.w3.org/2000/svg">
<path fill-rule="evenodd" clip-rule="evenodd" d="M6.57333 6.57333C8.98667 4.16 12.32 2.66667 16 2.66667C19.68 2.66667 23.0133 4.16 25.4267 6.57333L21.656 10.344C20.208 8.896 18.208 8 16 8C13.792 8 11.792 8.896 10.344 10.344L6.57333 6.57333Z" fill="#EB4134"/>
<path fill-rule="evenodd" clip-rule="evenodd" d="M21.656 21.656L25.4267 25.4267C23.0133 27.84 19.68 29.3333 16 29.3333C12.32 29.3333 8.98667 27.84 6.57333 25.4267L10.344 21.656C11.792 23.104 13.792 24 16 24C18.208 24 20.208 23.104 21.656 21.656Z" fill="#34AA51"/>
<path fill-rule="evenodd" clip-rule="evenodd" d="M6.57333 6.57333L10.344 10.344C8.896 11.792 8 13.792 8 16C8 18.208 8.896 20.208 10.344 21.656L6.57333 25.4267C4.16 23.0133 2.66667 19.68 2.66667 16C2.66667 12.32 4.16 8.98667 6.57333 6.57333Z" fill="#FBBE04"/>
<path fill-rule="evenodd" clip-rule="evenodd" d="M16 13.3333H29.0667C29.2413 14.1947 29.3333 15.0867 29.3333 16C29.3333 16.9133 29.2413 17.8053 29.0667 18.6667C28.5347 21.2773 27.2413 23.612 25.4267 25.4267L21.656 21.656C22.4907 20.8213 23.1427 19.8027 23.544 18.6667H16V13.3333Z" fill="#4186F7"/>
</svg>
