<svg viewBox="0 0 32 32" fill="none" xmlns="http://www.w3.org/2000/svg">
<path d="M16.0003 16H25.3337M25.3337 16L21.3337 20M25.3337 16L21.3337 12M25.3337 8V6.66667C25.3337 5.95942 25.0527 5.28115 24.5526 4.78105C24.0525 4.28095 23.3742 4 22.667 4H9.33366C8.62641 4 7.94814 4.28095 7.44804 4.78105C6.94794 5.28115 6.66699 5.95942 6.66699 6.66667V25.3333C6.66699 26.0406 6.94794 26.7189 7.44804 27.219C7.94814 27.719 8.62641 28 9.33366 28H22.667C23.3742 28 24.0525 27.719 24.5526 27.219C25.0527 26.7189 25.3337 26.0406 25.3337 25.3333V24" stroke="#131313" stroke-width="1.5" stroke-linecap="round" stroke-linejoin="round"/>
</svg>
