<svg viewBox="0 0 32 32" fill="none" xmlns="http://www.w3.org/2000/svg">
<path d="M6.66699 26.6667V25.3333C6.66699 22.858 7.65032 20.484 9.40066 18.7337C11.151 16.9833 13.525 16 16.0003 16M16.0003 16C18.4757 16 20.8496 16.9833 22.6 18.7337C24.3503 20.484 25.3337 22.858 25.3337 25.3333V26.6667M16.0003 16C17.4148 16 18.7714 15.4381 19.7716 14.4379C20.7718 13.4377 21.3337 12.0812 21.3337 10.6667C21.3337 9.25219 20.7718 7.89563 19.7716 6.89544C18.7714 5.89525 17.4148 5.33334 16.0003 5.33334C14.5858 5.33334 13.2293 5.89525 12.2291 6.89544C11.2289 7.89563 10.667 9.25219 10.667 10.6667C10.667 12.0812 11.2289 13.4377 12.2291 14.4379C13.2293 15.4381 14.5858 16 16.0003 16Z" stroke="#131313" stroke-width="1.5" stroke-linecap="round" stroke-linejoin="round"/>
</svg>
